/vscmnt/brussel_pixiu_data/_data_brussel/112/vsc11236/PredSimResults/SUBJ11mtu3D/worker2.mot
version=1
nRows=11
nColumns=50
inDegrees=yes
endheader
                time	         pelvis_tilt	         pelvis_list	     pelvis_rotation	           pelvis_tx	           pelvis_ty	           pelvis_tz	       hip_flexion_r	     hip_adduction_r	      hip_rotation_r	        knee_angle_r	       ankle_angle_r	         mtp_angle_r	       hip_flexion_l	     hip_adduction_l	      hip_rotation_l	        knee_angle_l	       ankle_angle_l	         mtp_angle_l	    lumbar_extension	      lumbar_bending	     lumbar_rotation	 ercspn_r/activation	 intobl_r/activation	 extobl_r/activation	    abd_r/activation	    add_r/activation	hamstrings_r/activation	bifemsh_r/activation	glut_max_r/activation	iliopsoas_r/activation	rect_fem_r/activation	  vasti_r/activation	gastroc_r/activation	 soleus_r/activation	tib_ant_r/activation	 ercspn_l/activation	 intobl_l/activation	 extobl_l/activation	    abd_l/activation	    add_l/activation	hamstrings_l/activation	bifemsh_l/activation	glut_max_l/activation	iliopsoas_l/activation	rect_fem_l/activation	  vasti_l/activation	gastroc_l/activation	 soleus_l/activation	tib_ant_l/activation	
          0.00000000	         -2.47344220	         -1.04559140	          6.09221157	          0.00000000	          0.94290744	         -0.00834784	         30.70329816	         -2.00188029	         -3.93107782	         -9.07216567	          3.03469957	          0.22161787	        -15.05110183	         -2.91821937	         -0.81298238	         -9.80812282	         12.86091147	         26.95216125	        -14.11747636	         -1.51864136	         -4.14147516	          0.04323027	          0.24838879	          0.05998171	          0.01223619	          0.16440893	          0.07380884	          0.14971338	          0.02541964	          0.07663855	          0.03377837	          0.00999999	          0.00999999	          0.00999999	          0.44597031	          0.00999999	          0.00999999	          0.00999999	          0.04205655	          0.00999999	          0.02763914	          0.25805006	          0.02241742	          0.27215801	          0.00999999	          0.00999999	          0.14560667	          0.28725753	          0.01497244	
          0.01341719	         -2.60045819	         -1.08675059	          6.16421738	          0.01840626	          0.94071738	         -0.00722907	         30.46959096	         -1.81749069	         -4.15326192	        -10.05004026	          2.47857693	          0.24579472	        -15.55636625	         -3.13541331	         -1.16453964	        -10.64417984	         12.15709677	         28.83021298	        -13.68281218	         -1.06757143	         -4.42809412	          0.03532982	          0.20299506	          0.04901989	          0.00999999	          0.18764766	          0.06032008	          0.12235285	          0.09572930	          0.06263264	          0.02760528	          0.00999999	          0.01223619	          0.01497244	          0.46439011	          0.03899906	          0.00999999	          0.00999999	          0.03437060	          0.03141501	          0.02258801	          0.21089071	          0.01832058	          0.23000454	          0.00999999	          0.00999999	          0.11899665	          0.26810847	          0.01223619	
          0.02683439	         -2.70384098	         -1.13959216	          6.21157515	          0.03725009	          0.93876986	         -0.00605082	         30.17374603	         -1.66055868	         -4.29880568	        -11.28745441	          1.98578715	          0.21241018	        -15.97088338	         -3.37233216	         -1.53190809	        -11.70700481	         11.30860410	         30.77455991	        -13.21132066	         -0.59555664	         -4.70567062	          0.03591262	          0.16589716	          0.04006137	          0.07517264	          0.20392126	          0.05388977	          0.09999254	          0.11652352	          0.05118636	          0.02256034	          0.00999999	          0.01000000	          0.01223619	          0.52612789	          0.03187188	          0.00999999	          0.00999999	          0.02808928	          0.02567383	          0.01845999	          0.17234985	          0.01497244	          0.23794615	          0.00999999	          0.00999999	          0.09724969	          0.24436637	          0.00999999	
          0.04025158	         -2.78737716	         -1.17934733	          6.22318782	          0.05618729	          0.93732804	         -0.00478580	         29.90612284	         -1.52670769	         -4.49463980	        -12.56102429	          1.28265844	          0.18955817	        -16.17050396	         -3.60176770	         -1.91437569	        -13.16119734	         10.27451872	         32.79598182	        -12.74524538	         -0.13573973	         -4.96405062	          0.03994069	          0.13557900	          0.03274004	          0.11206782	          0.24136547	          0.04936044	          0.08171863	          0.11480000	          0.04183191	          0.01843738	          0.04171840	          0.00999999	          0.00999999	          0.58115606	          0.06422310	          0.00999999	          0.00999999	          0.02295589	          0.02688680	          0.02628288	          0.14085245	          0.01223619	          0.19446084	          0.00999999	          0.00999999	          0.07947704	          0.20738143	          0.00999999	
          0.05366877	         -2.85135010	         -1.20887856	          6.20327076	          0.07503643	          0.93653122	         -0.00344359	         29.70017122	         -1.40622217	         -4.71331750	        -13.97348268	          0.68340469	          0.14043505	        -16.06943010	         -3.83077345	         -2.30727665	        -15.12911724	          9.05534448	         34.82871341	        -12.30175670	          0.31314989	         -5.20148805	          0.03734962	          0.11080157	          0.02675671	          0.13557765	          0.27399459	          0.05263319	          0.06678432	          0.10805644	          0.03418701	          0.01506790	          0.09665256	          0.00999999	          0.00999999	          0.61735921	          0.07959886	          0.00999999	          0.00999999	          0.01876063	          0.08287773	          0.02147968	          0.11511128	          0.00999999	          0.15892259	          0.00999999	          0.00999999	          0.06495239	          0.16948191	          0.00999999	
          0.06708596	         -2.89727952	         -1.22460698	          6.15115281	          0.09368320	          0.93646633	         -0.00204613	         29.46510584	         -1.28797421	         -4.91174797	        -15.40202625	          0.39037449	          0.09109243	        -15.59403752	         -4.05808806	         -2.71503550	        -17.71554405	          7.64868070	         36.75090671	        -11.88921721	          0.74666056	         -5.41338382	          0.03052387	          0.09055228	          0.02186685	          0.15528345	          0.28665164	          0.05520532	          0.05457931	          0.12179858	          0.02793924	          0.01231420	          0.14071186	          0.00999999	          0.00999999	          0.61516386	          0.10058576	          0.00999999	          0.00999999	          0.01533208	          0.13529679	          0.02858832	          0.09407438	          0.00999999	          0.12987905	          0.00999999	          0.00999999	          0.05308217	          0.13850863	          0.00999999	
          0.08050316	         -2.92795390	         -1.22592267	          6.06451907	          0.11195980	          0.93723327	         -0.00062804	         29.13439259	         -1.16078480	         -5.05408629	        -16.71329201	          0.41344009	          0.05196655	        -14.67897590	         -4.28670676	         -3.14992785	        -20.98836950	          6.03332682	         38.37366173	        -11.52194691	          1.16650661	         -5.59333769	          0.02494555	          0.07400360	          0.01787062	          0.16435232	          0.29681881	          0.05882367	          0.04460479	          0.12324025	          0.02283327	          0.01006374	          0.16666432	          0.00999999	          0.00999999	          0.58325107	          0.10911130	          0.00999999	          0.00999999	          0.01253010	          0.17639406	          0.06618105	          0.08409881	          0.00999999	          0.10614330	          0.00999999	          0.00999999	          0.04338126	          0.11319580	          0.00999999	
          0.09392035	         -2.94507015	         -1.20491412	          5.94116368	          0.12975961	          0.93883671	          0.00077179	         28.66725751	         -1.02675676	         -5.12119282	        -17.80982828	          0.68169864	          0.03103212	        -13.29953917	         -4.51942502	         -3.63870405	        -24.97436332	          4.34704507	         39.15800875	        -11.20886057	          1.56757663	         -5.73641142	          0.02038668	          0.06047924	          0.01460472	          0.16360151	          0.29964253	          0.06526839	          0.03645314	          0.11306970	          0.01866043	          0.00999999	          0.19042870	          0.00999999	          0.00999999	          0.53489322	          0.09917432	          0.00999999	          0.00999999	          0.01024019	          0.21762438	          0.05408628	          0.06978645	          0.00999999	          0.08674532	          0.00999999	          0.00999999	          0.03545321	          0.09250896	          0.00999999	
          0.10733754	         -2.95000172	         -1.15019860	          5.77641486	          0.14704952	          0.94121886	          0.00211945	         28.01661782	         -0.89252032	         -5.10116257	        -18.59097702	          1.13229669	          0.05012577	        -11.47400542	         -4.75901002	         -4.17158444	        -29.60627763	          2.56257672	         38.87396896	        -10.95287274	          1.94113040	         -5.83711374	          0.01666096	          0.04942649	          0.01193567	          0.15215066	          0.28431383	          0.06840207	          0.02979123	          0.09240591	          0.01525018	          0.00999999	          0.22547540	          0.00999999	          0.00999999	          0.47643347	          0.08542515	          0.00999999	          0.03723290	          0.00999999	          0.26690550	          0.04420187	          0.07077846	          0.00999999	          0.07089238	          0.00999999	          0.00999999	          0.02897404	          0.07560269	          0.03233425	
          0.12075473	         -2.94486320	         -1.05048066	          5.56435764	          0.16377326	          0.94428570	          0.00339685	         27.15355205	         -0.76791068	         -4.98605723	        -18.98460189	          1.69988447	          0.15791145	         -9.25566690	         -5.00249988	         -4.72942923	        -34.73625279	          0.69460539	         37.29748141	        -10.76317182	          2.27526535	         -5.89480013	          0.01361613	          0.04039367	          0.00999999	          0.13643766	          0.24136432	          0.06809443	          0.02434680	          0.07551847	          0.01246317	          0.00999999	          0.23520936	          0.00999999	          0.00999999	          0.41888674	          0.08763133	          0.03054335	          0.07475420	          0.00999999	          0.25650311	          0.03612386	          0.06245333	          0.00999999	          0.05793660	          0.00999999	          0.00999999	          0.02367896	          0.06178609	          0.09077793	
          0.13417193	         -2.93075346	         -0.89778687	          5.30445618	          0.17988036	          0.94785379	          0.00461636	         26.11569693	         -0.67078614	         -4.78775534	        -19.02704407	          2.26187608	          0.34027635	         -6.74937292	         -5.23999307	         -5.26570470	        -40.15222058	         -1.04006473	         34.13951651	        -10.64969870	          2.55265359	         -5.91306579	          0.01112774	          0.03301161	          0.00999999	          0.11879704	          0.19725433	          0.06537783	          0.01989736	          0.06171727	          0.01018549	          0.00999999	          0.22490370	          0.00999999	          0.00999999	          0.37120883	          0.10676558	          0.05708588	          0.11526841	          0.00999999	          0.20962647	          0.02952212	          0.05103982	          0.00999999	          0.04734853	          0.00999999	          0.00999999	          0.01935156	          0.05049452	          0.19606020	
